<svg xmlns="http://www.w3.org/2000/svg" width="188.938" height="187.562" viewBox="0 0 188.938 187.562">
  <defs>
    <style>
      .cls-1 {
        fill: #fff;
        fill-rule: evenodd;
      }
    </style>
  </defs>
  <path id="形状_1_拷贝" data-name="形状 1 拷贝" class="cls-1" d="M774.884,152.713c-0.637-3.4-1.2-6.05-1.475-7.327-0.2-.931-0.383-1.724-0.521-2.291-0.226-.926-0.566-2.323-2.144-2.323-35.607,0-71.168-24.072-82.853-31.982-3.666-2.482-4.137-2.8-5.006-2.8-0.918,0-1.538.41-5.565,3.08-11.83,7.84-47.83,31.7-83.017,31.7-1.577,0-1.917,1.4-2.142,2.324-0.138.569-.318,1.361-0.52,2.29-0.279,1.281-.841,3.936-1.478,7.326-0.963,5.133-2.112,12.035-2.112,15.772,0,25.33,13.595,55.976,37.3,84.081,20.366,24.148,43.876,41.012,57.172,41.012s36.806-16.864,57.171-41.012c23.7-28.1,37.3-58.751,37.3-84.081C776.99,164.742,775.845,157.842,774.884,152.713Zm-38.2,97.338c-19.361,22.957-42.141,39.618-54.167,39.618s-34.807-16.661-54.168-39.618c-23.119-27.411-36.378-57.141-36.378-81.567,0-5.418,2.833-19.436,3.843-23.819,35.874-.657,71.768-24.45,83.675-32.342,1.332-.882,2.609-1.729,3.362-2.19,0.662,0.421,1.725,1.141,2.831,1.889,11.769,7.967,47.253,31.989,83.546,32.644,1.008,4.365,3.835,18.35,3.835,23.818C773.067,192.91,759.807,222.64,736.688,250.051Zm-77.581-25.576c-2.7-3.853-2.445-8.342-4.392-8.73s-4.591,2.686-4.468,7.106,7.1,13.234,6.658,15.451c-0.126.624-.586,4.35-7.331,3-3.6-.718-13.841-5.7-20.915-12.51-6.195-5.965-9.772-12.218-12.081-15.128-1.16-1.465-2.558-2.16-3.977-1.362s-0.708,3.222-.708,3.222a66.747,66.747,0,0,0,13.483,19.819c9.426,9.591,40.018,25.4,36.105,44.938,1.166-.777,11.964-6.979,14.235-16.829,2.424-12.054-.857-17.319-2.664-20.923C671.375,239.189,661.8,228.328,659.107,224.475ZM622.95,210.816c-1.38-.275-1.738,3.741-1.424,7.38a68.2,68.2,0,0,0,7.445,8.869C628.262,221.723,626.477,211.756,622.95,210.816Zm8.344,6.8c-2.323-.387-1.358,6.87-0.616,11.057a54.771,54.771,0,0,0,6.1,4.655C636.194,228.409,634.588,218.067,631.294,217.615Zm7.176,6.4c-1.647.143-1.011,6.565-.542,10.059,1.8,1.143,3.583,2.148,5.217,2.985C642.513,232.823,640.917,224.1,638.47,224.018Zm113.976-11.712c-1.418-.8-2.816-0.1-3.977,1.362-2.308,2.91-5.885,9.163-12.08,15.128-7.074,6.812-17.319,11.792-20.915,12.51-6.746,1.346-7.205-2.38-7.331-3-0.446-2.217,6.534-11.031,6.657-15.451s-2.52-7.5-4.467-7.106-1.7,4.877-4.393,8.73S693.673,239.189,692,242.533c-1.808,3.6-5.088,8.869-2.664,20.923,2.271,9.85,13.068,16.052,14.235,16.829-3.913-19.536,26.678-35.347,36.105-44.938a66.731,66.731,0,0,0,13.482-19.819S753.865,213.1,752.446,212.306Zm-10.349-1.49c-3.526.94-5.311,10.907-6.02,16.249a68.27,68.27,0,0,0,7.444-8.869C743.836,214.557,743.478,210.541,742.1,210.816Zm-8.343,6.8c-3.3.452-4.9,10.794-5.48,15.712a54.761,54.761,0,0,0,6.1-4.655C735.112,224.485,736.077,217.228,733.754,217.615Zm-7.176,6.4c-2.447.079-4.043,8.805-4.675,13.044,1.634-.837,3.412-1.842,5.216-2.985C727.589,230.583,728.225,224.161,726.578,224.018Zm35.775-72.5-30.831,2.737c-3.045.145-27.842-2.118-27.842-2.118a3.7,3.7,0,0,1-2.779-1.007c-4.245-4.53-3.234-16.208-3.234-16.208-0.354-9.765-12.583-10.721-12.583-10.721-11.824-.906-21.588,10.9-21.588,10.9,0.714,0.6,4.059,3.247,4.059,3.247,4.918,3.958,1.858,9.228,1.858,9.228a36.741,36.741,0,0,1-2.107,3.336,1.5,1.5,0,0,1-1.276.829L635.209,153.9l-32.52-2.8,7.962,16.8c0.774,1.476-1.348,1.375-1.348,1.375l7.176,14.5c1.078,2.718,3.3,2.483,3.3,2.483,2.289-.1,2.391.436,2.391,0.436a30.533,30.533,0,0,0,4.851,6.88c0.91,1.242,5.525.839,5.525,0.839,0.4,0.671,5.39,6.543,5.39,6.543,2.628,2.92,8.018,2.45,8.018,2.45l11.083-.7c2.291-.167,1.668,1.125,1.668,1.125l-3.794,9.976c0.063,0.009.126,0.013,0.188,0.025,2.164,0.431,2.833,2.577,3.48,4.652a17.013,17.013,0,0,0,2.135,4.876c1.025,1.464,3.162,4.078,5.424,6.845,1.243,1.52,2.5,3.056,3.662,4.512l2.447-1.441,10.562,10.57,10.308-10.117,1.972,1.182c1.207-1.513,2.517-3.117,3.815-4.7,2.263-2.768,4.4-5.383,5.425-6.847a16.989,16.989,0,0,0,2.136-4.876c0.647-2.075,1.316-4.221,3.48-4.652a3.725,3.725,0,0,1,.894-0.066L707.2,203.274c0.641,0.268,10.948.5,10.948,0.5,4.717,0.335,6.738-.671,6.738-0.671,3.907-1.645,7.378-8.255,7.378-8.255a15.706,15.706,0,0,0,4.547-.3c3.1-.94,6.974-6.846,6.974-6.846a11.317,11.317,0,0,0,7.25-5.865l5.29-12.147h-1.5Zm-81.465-17.219,1.615-3.251,1.684,3.151h3.23l-2.693,2.815L686,140.5l-3.568-2.313-3.331,2.112,1.245-3.42-2.725-2.581h3.263Zm-49.643,52.024a7.817,7.817,0,1,1,7.842-7.822A7.833,7.833,0,0,1,631.245,186.319Zm16.2,14.264c-3.575,0-6.485-17.191-6.488-22.076s2.884-22.083,6.459-22.085,28.064,18.74,28.067,22.062S651.023,200.581,647.448,200.583Zm35.1,32.894a7.817,7.817,0,1,1,7.842-7.822A7.833,7.833,0,0,1,682.547,233.477Zm0-17.5c-4.9,0-22.168-2.872-22.171-6.434s18.814-27.955,22.149-27.957,22.183,24.367,22.185,27.928S687.451,215.975,682.546,215.978Zm35.083-15.431c-3.576,0-28.065-18.741-28.067-22.063s24.463-22.1,28.038-22.1,6.485,17.192,6.488,22.077S721.2,200.544,717.629,200.547Zm16.184-14.265a7.816,7.816,0,1,1,7.841-7.821A7.831,7.831,0,0,1,733.813,186.282Z" transform="translate(-588.062 -106)"/>
</svg>
